{
  "asset": {
    "version": "2.0",
    "generator": "THREE.GLTFExporter"
  },
  "scenes": [
    {
      "nodes": [
        0
      ]
    }
  ],
  "scene": 0,
  "nodes": [
    {
      "children": [
        19
      ],
      "matrix": [
        0.01,
        0,
        0,
        0,
        0,
        0.01,
        0,
        0,
        0,
        0,
        0.01,
        0,
        0,
        0,
        0,
        1
      ]
    },
    {
      "matrix": [
        0.5528121685235379,
        0.004134825791199215,
        0.003592039309069206,
        0,
        -0.004077579971057333,
        0.5527551013201515,
        -0.008744398466863625,
        0,
        -0.0036568938050065003,
        0.008717475474246445,
        0.5527584698107033,
        0,
        -0.028873873109157788,
        0.02046727666703418,
        4.42010747031856,
        1
      ],
      "name": "heart_lowpoly 3",
      "mesh": 0
    },
    {
      "name": "Hurted Heart",
      "children": [
        1
      ]
    },
    {
      "matrix": [
        0.5883484054145521,
        0.39223227027636803,
        -0.7071067811865475,
        0,
        -0.554700196225229,
        0.8320502943378437,
        0,
        0,
        0.588348405414552,
        0.392232270276368,
        0.7071067811865476,
        0,
        0,
        0,
        0,
        1
      ],
      "name": "Directional Light",
      "extensions": {
        "KHR_lights_punctual": {
          "light": 0
        }
      }
    },
    {
      "matrix": [
        1,
        0,
        0,
        0,
        0,
        1,
        0,
        0,
        0,
        0,
        1,
        0,
        3.242160525975826,
        3.7825206136380745,
        999.9999999999977,
        1
      ],
      "name": "Personal Camera",
      "camera": 0
    },
    {
      "matrix": [
        1,
        0,
        0,
        0,
        0,
        1,
        0,
        0,
        0,
        0,
        1,
        0,
        0,
        1,
        0,
        1
      ],
      "name": "Default Ambient Light"
    },
    {
      "matrix": [
        1,
        0,
        0,
        0,
        0,
        1,
        0,
        0,
        0,
        0,
        1,
        0,
        0,
        102.21244049072266,
        0,
        1
      ],
      "mesh": 1
    },
    {
      "matrix": [
        0.8660254037844387,
        -0.49999999999999994,
        0,
        0,
        0.49999999999999994,
        0.8660254037844387,
        0,
        0,
        0,
        0,
        1,
        0,
        51.10622024536132,
        88.51857004777101,
        0,
        1
      ],
      "mesh": 1
    },
    {
      "matrix": [
        0.5000000000000001,
        -0.8660254037844386,
        0,
        0,
        0.8660254037844386,
        0.5000000000000001,
        0,
        0,
        0,
        0,
        1,
        0,
        88.518570047771,
        51.10622024536135,
        0,
        1
      ],
      "mesh": 1
    },
    {
      "matrix": [
        2.220446049250313e-16,
        -1,
        0,
        0,
        1,
        2.220446049250313e-16,
        0,
        0,
        0,
        0,
        1,
        0,
        102.21244049072266,
        2.2695720967185785e-14,
        0,
        1
      ],
      "mesh": 1
    },
    {
      "matrix": [
        -0.4999999999999998,
        -0.8660254037844388,
        0,
        0,
        0.8660254037844388,
        -0.4999999999999998,
        0,
        0,
        0,
        0,
        1,
        0,
        88.51857004777101,
        -51.10622024536131,
        0,
        1
      ],
      "mesh": 1
    },
    {
      "matrix": [
        -0.8660254037844384,
        -0.5000000000000003,
        0,
        0,
        0.5000000000000003,
        -0.8660254037844384,
        0,
        0,
        0,
        0,
        1,
        0,
        51.106220245361364,
        -88.51857004777096,
        0,
        1
      ],
      "mesh": 1
    },
    {
      "matrix": [
        -1,
        -1.2246467991473532e-16,
        0,
        0,
        1.2246467991473532e-16,
        -1,
        0,
        0,
        0,
        0,
        1,
        0,
        1.2517413808000282e-14,
        -102.21244049072266,
        0,
        1
      ],
      "mesh": 1
    },
    {
      "matrix": [
        -0.8660254037844388,
        0.4999999999999998,
        0,
        0,
        -0.4999999999999998,
        -0.8660254037844388,
        0,
        0,
        0,
        0,
        1,
        0,
        -51.10622024536131,
        -88.51857004777101,
        0,
        1
      ],
      "mesh": 1
    },
    {
      "matrix": [
        -0.5000000000000002,
        0.8660254037844384,
        0,
        0,
        -0.8660254037844384,
        -0.5000000000000002,
        0,
        0,
        0,
        0,
        1,
        0,
        -88.51857004777096,
        -51.10622024536135,
        0,
        1
      ],
      "mesh": 1
    },
    {
      "matrix": [
        -2.220446049250313e-16,
        1,
        0,
        0,
        -1,
        -2.220446049250313e-16,
        0,
        0,
        0,
        0,
        1,
        0,
        -102.21244049072266,
        -2.2695720967185785e-14,
        0,
        1
      ],
      "mesh": 1
    },
    {
      "matrix": [
        0.49999999999999933,
        0.866025403784439,
        0,
        0,
        -0.866025403784439,
        0.49999999999999933,
        0,
        0,
        0,
        0,
        1,
        0,
        -88.51857004777104,
        51.10622024536126,
        0,
        1
      ],
      "mesh": 1
    },
    {
      "matrix": [
        0.8660254037844384,
        0.5000000000000004,
        0,
        0,
        -0.5000000000000004,
        0.8660254037844384,
        0,
        0,
        0,
        0,
        1,
        0,
        -51.10622024536137,
        88.51857004777096,
        0,
        1
      ],
      "mesh": 1
    },
    {
      "matrix": [
        1,
        0,
        0,
        0,
        0,
        1,
        0,
        0,
        0,
        0,
        1,
        0,
        -1.0807201753252889,
        7.127893127652783,
        0,
        1
      ],
      "children": [
        6,
        7,
        8,
        9,
        10,
        11,
        12,
        13,
        14,
        15,
        16,
        17
      ]
    },
    {
      "name": "Scene 1",
      "children": [
        2,
        3,
        4,
        5,
        18
      ]
    }
  ],
  "bufferViews": [
    {
      "buffer": 0,
      "byteOffset": 0,
      "byteLength": 21504,
      "target": 34962,
      "byteStride": 12
    },
    {
      "buffer": 0,
      "byteOffset": 21504,
      "byteLength": 21504,
      "target": 34962,
      "byteStride": 12
    },
    {
      "buffer": 0,
      "byteOffset": 43008,
      "byteLength": 10752,
      "target": 34963
    },
    {
      "buffer": 0,
      "byteOffset": 53760,
      "byteLength": 6756,
      "target": 34962,
      "byteStride": 12
    },
    {
      "buffer": 0,
      "byteOffset": 60516,
      "byteLength": 6756,
      "target": 34962,
      "byteStride": 12
    },
    {
      "buffer": 0,
      "byteOffset": 67272,
      "byteLength": 4504,
      "target": 34962,
      "byteStride": 8
    },
    {
      "buffer": 0,
      "byteOffset": 71776,
      "byteLength": 5592,
      "target": 34963
    }
  ],
  "buffers": [
    {
      "byteLength": 77368,
      "uri": "data:application/octet-stream;base64,"
    }
  ],
  "accessors": [
    {
      "bufferView": 0,
      "componentType": 5126,
      "count": 1792,
      "max": [
        135.57443237304688,
        120.70275115966797,
        69.19126892089844
      ],
      "min": [
        -135.57443237304688,
        -119.7328109741211,
        -85.55616760253906
      ],
      "type": "VEC3"
    },
    {
      "bufferView": 1,
      "componentType": 5126,
      "count": 1792,
      "max": [
        0.9992611408233643,
        0.9995072484016418,
        0.9992196559906006
      ],
      "min": [
        -0.9991183876991272,
        -0.9718279242515564,
        -0.9996187090873718
      ],
      "type": "VEC3"
    },
    {
      "bufferView": 2,
      "componentType": 5125,
      "count": 2688,
      "max": [
        1791
      ],
      "min": [
        0
      ],
      "type": "SCALAR"
    },
    {
      "bufferView": 3,
      "componentType": 5126,
      "count": 563,
      "max": [
        6.99819278717041,
        30.68474578857422,
        7
      ],
      "min": [
        -7.486005783081055,
        -6.908902168273926,
        -7
      ],
      "type": "VEC3"
    },
    {
      "bufferView": 4,
      "componentType": 5126,
      "count": 563,
      "max": [
        0.9997413754463196,
        0.9997418522834778,
        0.9999995827674866
      ],
      "min": [
        -0.9997413754463196,
        -0.9997418522834778,
        -0.9999995827674866
      ],
      "type": "VEC3"
    },
    {
      "bufferView": 5,
      "componentType": 5126,
      "count": 563,
      "max": [
        1,
        1
      ],
      "min": [
        0,
        0
      ],
      "type": "VEC2"
    },
    {
      "bufferView": 6,
      "componentType": 5123,
      "count": 2796,
      "max": [
        562
      ],
      "min": [
        0
      ],
      "type": "SCALAR"
    }
  ],
  "meshes": [
    {
      "primitives": [
        {
          "mode": 4,
          "attributes": {
            "POSITION": 0,
            "NORMAL": 1
          },
          "extras": {
            "type": "SubdivGeometry",
            "parameters": {
              "width": 271.14886474609375,
              "height": 240.43556213378906,
              "depth": 154.7474365234375
            }
          },
          "indices": 2
        }
      ]
    },
    {
      "primitives": [
        {
          "mode": 4,
          "attributes": {
            "POSITION": 3,
            "NORMAL": 4,
            "TEXCOORD_0": 5
          },
          "extras": {
            "path": {
              "points": [
                {
                  "id": "374eaf99-8510-49aa-98c2-587fa9d8f681",
                  "fi": 0,
                  "data": {
                    "position": [
                      0,
                      0,
                      0
                    ],
                    "roundness": 0,
                    "areControlsDirectionsMirrored": true,
                    "controlPrevious": {
                      "position": [
                        0,
                        0,
                        0
                      ]
                    },
                    "controlNext": {
                      "position": [
                        0,
                        0,
                        0
                      ]
                    }
                  }
                },
                {
                  "id": "225ca154-ee19-4b82-ad1f-8220b965777f",
                  "fi": 1,
                  "data": {
                    "position": [
                      -0.5403600876626062,
                      23.775843857155955,
                      0
                    ],
                    "roundness": 0,
                    "areControlsDirectionsMirrored": true,
                    "controlPrevious": {
                      "position": [
                        -0.5403600876626062,
                        23.775843857155955,
                        0
                      ]
                    },
                    "controlNext": {
                      "position": [
                        -0.5403600876626062,
                        23.775843857155955,
                        0
                      ]
                    }
                  }
                }
              ],
              "lastInsertionPlane": null,
              "subdivisions": 12,
              "isClosed": false,
              "roundness": 0
            },
            "parameters": {
              "width": 0.5403600876626062,
              "height": 23.775843857155955,
              "depth": 0,
              "subdivisions": 40,
              "roundness": 0,
              "extrudeBevelSize": 0,
              "extrudeBevelSegments": 3,
              "windingRule": 0,
              "shape": {
                "points": [
                  {
                    "fi": 0.5626031531380407,
                    "id": "374eaf99-8510-49aa-98c2-587fa9d8f681",
                    "data": {
                      "position": [
                        0,
                        0
                      ],
                      "controlPrevious": {
                        "position": [
                          0,
                          0
                        ]
                      },
                      "controlNext": {
                        "position": [
                          0,
                          0
                        ]
                      },
                      "areControlsDirectionsMirrored": true,
                      "roundness": 0
                    }
                  },
                  {
                    "fi": 1.0218968475645391,
                    "id": "225ca154-ee19-4b82-ad1f-8220b965777f",
                    "data": {
                      "position": [
                        0,
                        37.28484604872193
                      ],
                      "controlPrevious": {
                        "position": [
                          0,
                          37.28484604872193
                        ]
                      },
                      "controlNext": {
                        "position": [
                          0,
                          37.28484604872193
                        ]
                      },
                      "areControlsDirectionsMirrored": true,
                      "roundness": 0
                    }
                  }
                ],
                "isClosed": false,
                "roundness": 0,
                "shapeHoles": []
              },
              "type": "PathGeometry",
              "path": {
                "points": [
                  {
                    "id": "374eaf99-8510-49aa-98c2-587fa9d8f681",
                    "fi": 0,
                    "data": {
                      "position": [
                        0,
                        0,
                        0
                      ],
                      "roundness": 0,
                      "areControlsDirectionsMirrored": true,
                      "controlPrevious": {
                        "position": [
                          0,
                          0,
                          0
                        ]
                      },
                      "controlNext": {
                        "position": [
                          0,
                          0,
                          0
                        ]
                      }
                    }
                  },
                  {
                    "id": "225ca154-ee19-4b82-ad1f-8220b965777f",
                    "fi": 1,
                    "data": {
                      "position": [
                        -0.5403600876626062,
                        23.775843857155955,
                        0
                      ],
                      "roundness": 0,
                      "areControlsDirectionsMirrored": true,
                      "controlPrevious": {
                        "position": [
                          -0.5403600876626062,
                          23.775843857155955,
                          0
                        ]
                      },
                      "controlNext": {
                        "position": [
                          -0.5403600876626062,
                          23.775843857155955,
                          0
                        ]
                      }
                    }
                  }
                ],
                "lastInsertionPlane": null,
                "subdivisions": 12,
                "isClosed": false,
                "roundness": 0
              },
              "extrusion": {
                "shape": {
                  "type": "Ellipse",
                  "width": 14,
                  "height": 14,
                  "spikes": 16,
                  "angle": 360,
                  "innerRadius": 0
                },
                "depth": 1,
                "offset": 0,
                "bevel": 50,
                "bevelSides": 6,
                "angle": 0,
                "twist": 0,
                "startScale": 1,
                "endScale": 1,
                "capType": "round"
              }
            },
            "shapeData": {
              "points": [
                -25,
                0,
                -25,
                -13.807118744999999,
                -25,
                13.807118744999999,
                0,
                0,
                25,
                -13.807118744999999,
                25,
                13.807118744999999,
                25,
                0,
                25,
                0,
                25,
                13.807118744999999,
                25,
                -13.807118744999999,
                0,
                0,
                -25,
                13.807118744999999,
                -25,
                -13.807118744999999,
                -25,
                0
              ],
              "shapeHoles": [],
              "isClosed": true,
              "roundness": 0
            },
            "type": "PathGeometry"
          },
          "indices": 6
        }
      ]
    }
  ],
  "extensions": {
    "KHR_lights_punctual": {
      "lights": [
        {
          "name": "Directional Light",
          "color": [
            1,
            1,
            1
          ],
          "intensity": 0.7,
          "type": "directional"
        }
      ]
    }
  },
  "cameras": [
    {
      "type": "orthographic",
      "orthographic": {
        "xmag": 4.620078749515545,
        "ymag": 2.609939223410536,
        "zfar": 100000,
        "znear": 0
      },
      "name": "Camera"
    }
  ],
  "extensionsUsed": [
    "KHR_lights_punctual"
  ]
}